<svg width="18" height="18" viewBox="0 0 18 18" fill="none" xmlns="http://www.w3.org/2000/svg">
<path d="M2.58333 15.4167H3.88958L12.85 6.45625L11.5438 5.15L2.58333 14.1104V15.4167ZM0.75 17.25V13.3542L12.85 1.27708C13.0333 1.10903 13.2358 0.979167 13.4573 0.8875C13.6788 0.795833 13.9118 0.75 14.1563 0.75C14.4007 0.75 14.6375 0.795833 14.8667 0.8875C15.0958 0.979167 15.2944 1.11667 15.4625 1.3L16.7229 2.58333C16.9063 2.75139 17.0399 2.95 17.124 3.17917C17.208 3.40833 17.25 3.6375 17.25 3.86667C17.25 4.11111 17.208 4.3441 17.124 4.56562C17.0399 4.78715 16.9063 4.98958 16.7229 5.17292L4.64583 17.25H0.75ZM12.1854 5.81458L11.5438 5.15L12.85 6.45625L12.1854 5.81458Z" fill="#000000"/>
</svg>
