<svg width="18" height="17" viewBox="0 0 18 17" fill="none" xmlns="http://www.w3.org/2000/svg">
<path d="M13.1665 3.50008H17.3332V5.16675H15.6665V16.0001C15.6665 16.2211 15.5787 16.4331 15.4224 16.5893C15.2661 16.7456 15.0542 16.8334 14.8332 16.8334H3.1665C2.94549 16.8334 2.73353 16.7456 2.57725 16.5893C2.42097 16.4331 2.33317 16.2211 2.33317 16.0001V5.16675H0.666504V3.50008H4.83317V1.00008C4.83317 0.779068 4.92097 0.567106 5.07725 0.410826C5.23353 0.254545 5.44549 0.166748 5.6665 0.166748H12.3332C12.5542 0.166748 12.7661 0.254545 12.9224 0.410826C13.0787 0.567106 13.1665 0.779068 13.1665 1.00008V3.50008ZM13.9998 5.16675H3.99984V15.1667H13.9998V5.16675ZM6.49984 1.83341V3.50008H11.4998V1.83341H6.49984Z" fill="white"/>
</svg>
